<?xml version="1.0" standalone="no"?>
<!DOCTYPE svg PUBLIC "-//W3C//DTD SVG 20010904//EN"
 "http://www.w3.org/TR/2001/REC-SVG-20010904/DTD/svg10.dtd">
<svg version="1.0" xmlns="http://www.w3.org/2000/svg"
 width="3072.000000pt" height="3072.000000pt" viewBox="0 0 3072.000000 3072.000000"
 preserveAspectRatio="xMidYMid meet">
<metadata>
Created by potrace 1.14, written by Peter Selinger 2001-2017
</metadata>
<g transform="translate(0.000000,3072.000000) scale(0.100000,-0.100000)"
fill="#000000" stroke="none">
<path d="M14817 28783 c-1 0 -81 -4 -177 -7 -96 -4 -204 -9 -240 -11 -36 -2
-103 -7 -150 -10 -47 -3 -105 -8 -130 -10 -25 -3 -81 -7 -125 -10 -44 -3 -93
-7 -110 -9 -16 -2 -64 -7 -105 -11 -41 -4 -88 -9 -105 -11 -16 -2 -50 -6 -75
-9 -25 -3 -61 -7 -80 -10 -19 -2 -55 -7 -80 -10 -96 -11 -351 -48 -450 -65
-30 -5 -68 -12 -85 -14 -113 -17 -595 -113 -760 -152 -11 -3 -31 -7 -45 -10
-14 -3 -56 -14 -95 -24 -38 -10 -81 -21 -95 -23 -14 -3 -32 -8 -40 -11 -8 -3
-26 -8 -40 -10 -73 -14 -430 -115 -655 -186 -71 -22 -137 -43 -145 -45 -19 -5
-340 -113 -360 -122 -8 -3 -19 -7 -25 -9 -15 -3 -387 -144 -410 -154 -11 -5
-96 -41 -190 -79 -145 -59 -324 -137 -514 -222 -78 -36 -540 -265 -646 -322
-314 -166 -717 -402 -970 -566 -38 -25 -78 -50 -87 -56 -102 -60 -572 -392
-783 -554 -207 -158 -503 -396 -605 -487 -19 -17 -102 -91 -185 -164 -561
-496 -1104 -1065 -1568 -1645 -49 -60 -97 -119 -107 -131 -22 -27 -258 -340
-286 -379 -11 -16 -51 -73 -89 -125 -214 -295 -542 -811 -730 -1145 -160 -284
-376 -700 -472 -910 -23 -49 -62 -134 -87 -188 -25 -54 -46 -100 -46 -102 0
-3 -11 -28 -24 -57 -285 -624 -615 -1618 -776 -2338 -12 -52 -23 -102 -25
-110 -9 -36 -57 -267 -61 -290 -2 -14 -7 -36 -10 -50 -3 -14 -8 -36 -10 -50
-3 -14 -13 -70 -24 -125 -10 -55 -21 -118 -24 -140 -4 -23 -8 -50 -10 -60 -8
-43 -19 -111 -22 -132 -1 -13 -5 -42 -9 -65 -4 -24 -9 -56 -11 -73 -2 -16 -6
-41 -9 -55 -2 -14 -7 -50 -10 -80 -4 -30 -8 -66 -10 -80 -8 -53 -15 -107 -20
-165 -4 -33 -8 -71 -10 -85 -2 -14 -9 -77 -15 -140 -6 -63 -12 -137 -15 -165
-5 -50 -10 -117 -20 -255 -42 -600 -38 -1426 10 -2000 9 -104 16 -185 20 -225
2 -22 7 -69 10 -105 4 -36 8 -76 10 -90 2 -14 6 -52 10 -85 10 -94 24 -207 30
-245 2 -14 6 -45 10 -70 3 -25 8 -56 10 -70 2 -14 7 -45 10 -70 5 -37 26 -160
70 -415 18 -106 40 -212 121 -587 37 -172 156 -623 214 -813 57 -184 78 -250
117 -370 69 -211 244 -693 283 -780 5 -11 45 -108 90 -215 429 -1022 963
-1954 1635 -2855 77 -103 366 -468 432 -545 11 -14 53 -63 93 -110 380 -448
848 -927 1290 -1319 58 -52 121 -108 140 -125 72 -66 302 -256 465 -387 535
-426 1205 -875 1785 -1197 78 -43 143 -79 201 -110 129 -71 516 -264 679 -339
254 -118 310 -143 315 -143 2 0 33 -13 67 -28 35 -16 122 -52 193 -81 72 -29
139 -57 150 -62 144 -60 430 -165 680 -249 110 -37 207 -70 215 -73 211 -71
868 -246 1175 -312 131 -28 514 -104 555 -110 27 -4 95 -15 115 -19 19 -4 248
-39 325 -50 52 -8 257 -34 320 -41 30 -4 66 -8 80 -10 14 -2 57 -6 95 -10 39
-3 86 -8 105 -10 19 -2 71 -7 115 -10 44 -4 98 -8 120 -10 39 -4 154 -12 305
-20 424 -25 1183 -25 1530 0 36 2 108 7 160 11 177 12 281 20 370 29 25 2 70
7 100 10 30 3 75 8 100 11 25 2 65 7 90 9 25 3 81 10 125 16 44 6 96 12 115
15 19 2 49 6 65 9 17 3 46 7 65 10 121 17 307 46 320 50 8 2 31 6 50 9 19 3
45 8 56 10 12 2 37 7 55 10 28 4 121 22 359 70 14 3 36 8 50 11 14 3 36 8 50
11 14 3 45 10 70 15 25 6 56 13 70 15 56 11 498 126 632 165 79 23 148 42 153
43 80 17 795 257 941 317 16 7 34 13 39 15 49 13 594 242 752 315 48 23 113
52 143 66 104 47 445 216 520 257 41 22 77 41 80 41 5 1 93 48 220 120 41 24
98 55 125 70 28 15 115 66 195 114 80 47 153 90 162 96 115 67 523 333 713
466 234 162 547 401 816 620 182 150 288 242 533 463 203 183 527 502 746 735
162 172 138 146 235 256 43 50 82 92 85 95 15 13 290 342 396 475 282 352 626
834 833 1165 19 30 59 92 88 137 29 46 53 85 53 87 0 2 22 40 48 83 246 397
593 1073 812 1583 274 639 485 1250 661 1920 23 85 42 162 44 170 2 8 12 53
24 100 17 73 33 139 46 200 56 255 141 704 160 845 2 22 7 51 9 65 3 14 7 43
11 65 3 22 7 54 10 70 3 17 7 48 10 70 5 38 8 62 20 165 3 25 7 61 10 80 2 19
6 51 9 70 2 19 8 76 11 125 4 50 9 92 10 95 2 3 6 48 10 100 4 52 8 111 10
130 2 19 6 80 10 135 3 55 8 125 10 155 24 296 24 1171 0 1540 -2 41 -7 113
-10 160 -3 47 -8 110 -10 140 -3 30 -7 80 -10 110 -9 114 -26 286 -29 310 -3
14 -7 52 -11 85 -8 82 -15 135 -20 165 -2 14 -7 49 -10 79 -4 30 -8 61 -10 70
-1 9 -6 41 -10 71 -4 30 -9 62 -10 70 -3 15 -14 85 -20 130 -17 110 -52 306
-75 420 -11 52 -21 106 -24 120 -41 229 -175 769 -268 1080 -22 74 -41 140
-42 145 -1 6 -33 105 -71 220 -38 116 -70 215 -71 220 -1 6 -19 55 -39 110
-20 55 -50 138 -67 185 -73 206 -274 693 -372 904 -23 50 -58 125 -76 166 -38
83 -307 619 -319 635 -5 6 -26 44 -48 85 -22 41 -51 93 -63 115 -13 22 -34 60
-48 85 -169 307 -479 793 -716 1125 -90 126 -311 424 -350 471 -8 11 -74 93
-147 184 -113 141 -272 333 -289 350 -3 3 -55 61 -115 130 -61 68 -117 132
-125 141 -8 8 -73 78 -145 155 -155 165 -483 493 -620 619 -54 50 -105 97
-114 106 -23 23 -217 196 -285 254 -33 28 -64 55 -70 60 -182 168 -773 622
-1116 856 -36 24 -69 47 -75 52 -11 8 -207 136 -335 219 -353 228 -790 473
-1245 697 -223 110 -297 146 -400 191 -22 10 -65 29 -95 43 -523 238 -1263
503 -1890 676 -132 36 -560 143 -620 155 -14 2 -57 11 -95 20 -39 8 -82 17
-95 20 -14 2 -82 16 -153 31 -70 14 -142 28 -160 30 -17 3 -43 7 -57 10 -14 3
-52 10 -85 15 -33 6 -71 12 -85 15 -77 14 -305 48 -400 60 -25 3 -56 8 -70 10
-14 2 -53 7 -87 10 -34 3 -70 7 -80 9 -10 2 -47 7 -83 10 -108 11 -163 17
-200 21 -19 2 -69 7 -110 10 -41 3 -97 8 -125 10 -121 11 -295 21 -525 31
-126 6 -899 12 -903 7z m873 -477 c85 -3 184 -8 220 -10 324 -22 413 -29 530
-41 19 -2 64 -7 100 -10 36 -4 76 -8 90 -10 14 -2 54 -6 90 -10 52 -5 300 -39
440 -60 14 -2 45 -6 70 -10 25 -3 92 -15 150 -25 58 -10 119 -21 135 -23 109
-17 535 -109 770 -167 534 -132 947 -260 1495 -463 209 -78 563 -226 840 -352
157 -72 654 -323 805 -408 83 -46 177 -98 210 -117 33 -18 84 -48 113 -66 29
-19 54 -34 56 -34 4 0 218 -131 286 -175 19 -12 94 -60 165 -106 456 -294
1016 -714 1400 -1050 369 -323 754 -694 1035 -998 63 -68 120 -129 125 -135
204 -220 540 -630 780 -950 672 -901 1232 -1900 1644 -2933 160 -401 303 -817
422 -1231 39 -135 72 -252 74 -261 2 -9 11 -45 20 -81 9 -36 19 -72 20 -80 2
-8 15 -60 29 -115 49 -199 130 -587 161 -770 8 -49 17 -100 19 -111 2 -12 7
-39 10 -60 3 -22 8 -50 11 -64 2 -14 7 -43 10 -65 3 -22 7 -51 10 -65 9 -59
26 -190 50 -385 3 -22 7 -56 10 -75 2 -19 7 -62 10 -95 3 -33 8 -78 10 -100 2
-22 7 -74 10 -115 3 -41 8 -95 10 -120 41 -449 52 -1405 20 -1770 -2 -25 -6
-94 -10 -155 -3 -60 -8 -121 -10 -135 -2 -14 -6 -65 -10 -115 -9 -113 -13
-160 -25 -260 -5 -44 -12 -107 -15 -140 -4 -33 -8 -71 -10 -85 -2 -14 -13 -92
-25 -175 -11 -82 -22 -161 -25 -175 -8 -53 -16 -106 -20 -135 -11 -81 -90
-488 -126 -649 -22 -99 -42 -192 -45 -206 -75 -353 -296 -1092 -454 -1515 -70
-190 -119 -315 -134 -350 -8 -16 -40 -93 -72 -170 -359 -872 -855 -1759 -1433
-2565 -139 -193 -459 -611 -491 -640 -3 -3 -34 -41 -70 -85 -35 -44 -76 -93
-91 -110 -15 -16 -58 -66 -95 -110 -38 -44 -78 -89 -89 -101 -11 -11 -49 -53
-85 -94 -126 -142 -227 -247 -450 -470 -319 -319 -539 -520 -901 -824 -169
-142 -604 -476 -774 -595 -513 -358 -885 -587 -1447 -889 -388 -209 -950 -464
-1403 -637 -82 -31 -177 -67 -210 -80 -63 -24 -411 -142 -575 -194 -149 -47
-519 -153 -580 -166 -8 -2 -44 -11 -80 -20 -36 -9 -72 -18 -80 -20 -8 -2 -44
-11 -80 -20 -36 -10 -74 -19 -85 -20 -11 -2 -38 -8 -60 -14 -63 -17 -407 -87
-560 -115 -168 -30 -222 -39 -365 -61 -58 -8 -116 -18 -134 -21 -10 -2 -44 -6
-75 -9 -31 -4 -81 -10 -111 -15 -30 -5 -80 -12 -110 -15 -30 -3 -71 -7 -90 -9
-56 -7 -161 -18 -205 -22 -22 -2 -65 -5 -95 -8 -52 -5 -83 -8 -268 -21 -466
-34 -1171 -38 -1622 -11 -36 3 -112 7 -170 11 -58 3 -121 8 -140 10 -19 2 -71
7 -115 10 -44 4 -93 8 -110 10 -16 2 -59 6 -95 10 -36 4 -81 8 -100 11 -19 2
-60 6 -90 9 -30 3 -66 8 -80 10 -14 2 -44 7 -67 10 -75 9 -127 16 -153 20 -14
2 -43 7 -65 9 -22 3 -49 7 -60 10 -11 2 -42 7 -68 10 -27 4 -57 9 -67 11 -9 2
-35 6 -56 9 -39 7 -336 61 -384 71 -14 3 -34 7 -45 9 -102 20 -180 37 -495
111 -15 3 -278 71 -312 80 -10 3 -26 7 -35 9 -358 89 -1102 345 -1538 528
-373 157 -872 394 -1170 556 -180 98 -418 234 -582 333 -151 91 -751 483 -763
499 -3 3 -21 17 -40 30 -191 131 -643 483 -880 686 -70 59 -278 242 -296 259
-11 11 -72 67 -135 125 -212 194 -674 665 -820 834 -19 22 -43 49 -54 61 -43
45 -95 105 -204 235 -62 74 -123 146 -135 160 -120 141 -448 576 -617 820
-163 235 -396 597 -493 763 -10 18 -51 88 -91 157 -135 234 -249 447 -392 732
-62 125 -113 229 -113 232 0 2 -22 52 -50 110 -27 58 -50 108 -50 111 0 3 -13
33 -29 67 -59 127 -218 516 -269 658 -68 189 -114 318 -122 335 -40 89 -274
880 -313 1055 -3 14 -11 45 -17 70 -6 25 -13 52 -15 60 -2 8 -22 95 -44 194
-23 98 -44 193 -47 210 -3 17 -10 51 -15 76 -6 25 -14 68 -19 95 -5 28 -16 86
-24 130 -29 159 -31 168 -61 370 -34 226 -33 214 -50 347 -8 65 -17 148 -20
185 -3 37 -8 75 -10 83 -2 8 -7 49 -10 90 -3 41 -8 95 -10 120 -6 51 -10 108
-20 260 -4 58 -9 125 -11 150 -23 289 -22 1153 1 1485 2 33 7 103 10 155 4 52
8 111 10 130 2 19 6 71 9 115 7 85 14 157 21 215 2 19 7 60 10 90 3 30 8 71
11 90 2 19 6 53 9 75 8 69 16 139 20 165 6 39 15 107 20 137 8 59 35 229 40
253 3 14 7 41 10 60 5 33 7 49 20 110 2 14 7 40 10 58 38 229 169 792 262
1117 25 88 46 165 47 170 2 6 6 17 9 25 6 18 49 160 52 175 14 63 270 788 297
838 5 10 11 26 13 35 2 9 17 51 35 92 17 41 35 84 39 95 145 351 378 846 527
1123 19 34 50 92 70 130 290 535 686 1149 1068 1650 97 127 267 344 276 352 3
3 39 46 80 95 84 102 247 290 349 404 200 222 617 644 800 811 57 52 114 104
125 116 12 12 80 72 151 134 72 62 144 125 160 139 96 85 442 361 598 477 100
74 189 141 197 147 159 126 868 587 1100 715 25 14 74 42 110 62 207 119 337
188 610 324 657 328 1274 574 1985 795 137 42 509 147 555 156 8 2 69 17 135
34 100 25 454 105 560 125 17 4 41 9 55 11 14 3 39 8 55 10 17 3 75 14 130 25
55 10 177 30 270 45 94 14 181 28 195 30 14 2 45 6 70 10 25 3 56 8 70 10 26
4 77 10 170 20 30 3 66 8 80 10 14 2 57 7 97 10 40 4 85 8 100 10 15 2 66 7
113 10 47 4 101 9 120 10 19 2 87 6 150 10 63 4 131 9 150 10 19 2 118 7 220
11 102 3 186 7 187 8 5 4 702 -2 833 -8z"/>
<path d="M14887 27083 c-1 -1 -65 -4 -142 -8 -77 -3 -178 -8 -225 -10 -173 -8
-447 -20 -680 -30 -184 -7 -244 -12 -270 -20 -25 -8 -37 -43 -34 -100 8 -186
15 -334 19 -420 3 -55 7 -149 10 -210 4 -106 8 -197 20 -445 3 -63 8 -162 10
-220 2 -58 6 -154 9 -215 3 -60 8 -168 11 -240 3 -71 8 -177 11 -235 2 -58 7
-150 9 -205 2 -55 6 -154 10 -220 3 -66 7 -163 10 -215 11 -287 18 -387 27
-403 14 -27 47 -35 124 -32 38 2 132 6 209 9 212 10 258 15 278 34 18 16 18
29 12 192 -3 96 -8 198 -10 225 -2 28 -7 118 -10 200 -3 83 -8 182 -10 220 -2
39 -7 149 -10 245 -4 96 -8 178 -11 181 -15 25 112 39 375 43 l85 1 26 -50
c15 -28 154 -302 309 -610 188 -372 293 -570 313 -589 l31 -28 161 7 c89 3
208 8 266 10 134 6 168 12 179 34 16 29 17 27 -119 276 -15 28 -47 86 -70 130
-24 44 -61 114 -83 155 -22 41 -54 102 -72 135 -18 33 -58 110 -90 170 -32 61
-66 124 -75 140 -10 17 -43 80 -75 140 -31 61 -61 114 -66 119 -5 6 -9 19 -9
31 0 15 16 28 70 53 139 65 262 170 342 292 48 75 62 103 91 190 31 93 35 112
43 191 27 278 -48 563 -199 749 -124 152 -323 273 -503 306 -15 3 -30 7 -33 9
-13 7 -258 25 -264 18z m66 -575 c168 -36 289 -183 301 -364 12 -195 -87 -343
-275 -409 -47 -17 -104 -23 -279 -30 -281 -11 -386 -16 -412 -19 -51 -6 -56 7
-63 169 -3 83 -8 186 -10 230 -2 44 -7 147 -10 230 -4 82 -9 153 -11 157 -6 9
14 21 45 24 27 3 162 9 431 20 85 3 157 7 158 9 5 4 65 -4 125 -17z"/>
<path d="M16704 27014 c-17 -24 -16 -46 1 -314 2 -36 7 -117 10 -180 9 -159
19 -337 29 -500 3 -47 8 -130 11 -185 3 -55 7 -131 10 -170 3 -38 7 -115 10
-170 3 -55 8 -131 10 -170 3 -38 7 -115 10 -170 3 -55 8 -138 11 -185 3 -47 7
-119 9 -160 2 -41 6 -113 9 -160 3 -47 8 -125 11 -175 9 -177 15 -281 20 -340
2 -33 7 -121 11 -195 7 -143 18 -184 57 -200 19 -9 424 -109 510 -127 50 -10
77 -6 98 12 15 15 103 157 203 328 26 45 360 607 410 690 23 37 49 82 60 100
22 39 340 573 551 927 456 765 434 724 419 764 -6 16 -85 42 -194 66 -30 7
-68 16 -85 21 -53 15 -285 69 -299 69 -25 0 -70 -46 -95 -97 -14 -26 -44 -82
-66 -123 -23 -41 -63 -114 -88 -162 -25 -47 -56 -103 -68 -125 -12 -21 -38
-67 -57 -103 -33 -62 -49 -91 -119 -220 -17 -30 -47 -86 -68 -125 -21 -38 -45
-83 -55 -100 -9 -16 -33 -59 -52 -95 -20 -36 -49 -90 -66 -121 -223 -413 -407
-747 -418 -758 -7 -8 -17 -12 -20 -8 -4 3 -8 50 -10 104 -1 54 -5 199 -9 323
-4 124 -8 281 -10 350 -2 69 -6 222 -10 341 -3 119 -7 272 -10 340 -2 68 -7
243 -11 389 -4 146 -8 290 -9 320 -2 30 -3 74 -4 96 -2 68 -21 82 -156 115
-66 17 -131 32 -145 35 -14 3 -38 9 -55 14 -16 5 -41 12 -55 14 -14 3 -53 12
-88 21 -111 27 -130 27 -148 -1z"/>
<path d="M12045 26701 c-90 -32 -752 -278 -775 -288 -8 -3 -19 -7 -25 -9 -14
-3 -462 -171 -505 -189 -19 -8 -87 -32 -150 -55 -63 -22 -124 -45 -135 -50
-11 -5 -79 -31 -151 -57 -160 -59 -177 -70 -176 -109 0 -25 144 -426 263 -734
15 -41 65 -174 110 -295 44 -121 137 -371 206 -555 107 -288 209 -562 432
-1163 26 -71 55 -137 64 -148 24 -27 51 -24 158 17 52 19 101 37 109 39 18 5
577 212 605 225 11 5 187 70 390 145 204 75 397 147 430 160 33 12 119 44 190
70 72 27 138 55 148 63 9 8 17 28 17 43 0 39 -147 431 -167 447 -9 6 -26 12
-38 12 -12 0 -113 -34 -226 -76 -112 -42 -215 -80 -229 -84 -14 -5 -68 -25
-120 -45 -52 -20 -185 -70 -295 -110 -110 -41 -277 -103 -372 -138 -95 -35
-176 -61 -181 -58 -14 9 -271 705 -263 713 3 4 92 39 196 78 105 39 224 84
265 100 41 15 163 61 270 101 107 40 200 80 207 88 7 9 13 26 13 38 0 38 -148
427 -170 445 -12 10 -31 15 -46 12 -15 -3 -220 -77 -457 -165 -237 -88 -443
-163 -457 -165 -29 -6 -6 -58 -209 486 -53 141 -67 188 -58 196 7 7 136 58
287 113 302 112 304 112 307 112 2 0 20 7 40 16 21 8 199 76 397 149 197 73
367 141 377 150 11 10 19 27 19 39 0 38 -150 429 -172 448 -26 22 -28 22 -123
-12z"/>
<path d="M20041 25994 c-13 -10 -62 -97 -121 -218 -54 -110 -148 -304 -210
-431 -62 -126 -156 -320 -210 -430 -54 -110 -157 -321 -230 -470 -195 -398
-313 -639 -315 -645 0 -3 -63 -130 -138 -284 -75 -153 -137 -291 -137 -306 0
-15 8 -34 18 -43 15 -14 423 -216 480 -238 12 -5 32 -5 46 1 25 9 37 32 291
555 56 116 150 307 208 425 57 118 157 323 222 455 65 132 159 326 210 430 51
105 161 330 245 500 84 171 163 335 177 365 39 84 33 93 -123 170 -229 114
-369 180 -379 180 -6 0 -21 -7 -34 -16z"/>
<path d="M8675 25192 c-16 -8 -38 -23 -49 -34 -12 -11 -52 -45 -91 -76 -38
-31 -72 -59 -75 -62 -3 -3 -27 -23 -55 -45 -27 -22 -55 -44 -61 -50 -6 -5 -27
-24 -46 -41 -61 -54 -62 -61 -39 -234 7 -47 14 -103 17 -125 3 -22 7 -51 9
-65 3 -14 7 -50 10 -80 3 -30 7 -66 10 -80 2 -14 7 -45 10 -70 4 -25 8 -56 10
-70 2 -14 7 -49 10 -79 4 -30 8 -62 10 -72 2 -10 7 -49 10 -86 4 -37 9 -75 10
-83 8 -47 22 -151 30 -220 3 -30 8 -62 10 -70 3 -8 1 -21 -3 -28 -8 -12 -80
11 -997 320 -221 74 -259 81 -297 56 -51 -34 -398 -330 -408 -348 -22 -41 -40
-16 354 -490 94 -113 178 -214 188 -225 9 -11 86 -104 170 -206 140 -169 356
-430 781 -943 88 -105 227 -273 309 -374 154 -186 177 -205 221 -184 24 11
407 328 419 346 15 22 7 60 -19 95 -15 20 -30 38 -33 41 -3 3 -71 84 -150 180
-137 166 -256 310 -340 410 -21 25 -71 86 -111 135 -41 50 -84 101 -96 115
-12 14 -68 81 -124 150 -57 69 -105 127 -108 130 -4 3 -44 52 -91 110 -96 119
-112 138 -157 189 -18 20 -33 44 -33 53 0 14 34 5 203 -54 111 -38 213 -74
227 -78 14 -4 110 -38 214 -74 226 -79 251 -83 294 -53 82 59 202 165 212 189
11 24 7 149 -5 168 -2 3 -6 30 -9 60 -3 30 -8 64 -10 75 -2 11 -7 43 -10 70
-12 87 -17 119 -21 145 -3 14 -7 45 -10 70 -3 25 -7 52 -10 60 -2 8 -7 44 -10
80 -4 36 -8 67 -10 70 -1 3 -6 32 -10 65 -3 32 -8 63 -11 66 -8 14 13 18 28 6
9 -7 62 -68 118 -137 57 -69 120 -145 140 -170 21 -25 104 -126 186 -225 82
-99 159 -191 170 -205 12 -14 104 -124 204 -245 471 -570 458 -555 490 -555
22 0 57 23 147 97 65 54 120 100 123 103 3 3 40 34 83 69 89 72 112 101 103
133 -3 13 -35 59 -71 103 -37 44 -74 89 -83 100 -9 11 -37 45 -62 75 -25 30
-47 57 -51 60 -3 3 -59 70 -125 150 -65 80 -193 235 -284 344 -214 258 -613
740 -655 791 -374 454 -637 763 -652 767 -11 3 -32 -1 -48 -10z"/>
<path d="M21786 25028 c-13 -13 -98 -113 -187 -223 -90 -110 -171 -209 -180
-220 -10 -11 -162 -198 -339 -415 -342 -420 -368 -451 -416 -509 -17 -20 -91
-110 -165 -201 -73 -91 -139 -172 -146 -180 -7 -8 -89 -109 -184 -225 -94
-115 -181 -221 -193 -235 -30 -36 -121 -153 -130 -167 -16 -29 9 -66 93 -134
47 -38 93 -75 101 -82 8 -7 174 -143 369 -302 194 -160 368 -301 385 -315 17
-13 153 -124 301 -245 149 -121 296 -242 328 -268 83 -66 100 -64 172 21 31
37 62 74 68 82 7 8 41 51 77 95 91 112 90 110 96 139 4 25 -5 38 -72 96 -16
14 -38 32 -50 40 -11 8 -43 34 -70 57 -27 23 -105 87 -174 143 -69 56 -134
109 -145 118 -11 10 -45 37 -75 62 -30 25 -60 49 -66 55 -7 5 -125 102 -263
214 -139 113 -250 211 -249 218 2 7 77 104 168 215 248 304 1068 1307 1105
1353 114 137 313 384 328 405 37 54 26 70 -158 215 -27 21 -54 44 -60 49 -5 6
-43 38 -84 71 -133 107 -143 111 -185 73z"/>
<path d="M15087 22704 c-1 -1 -87 -5 -192 -9 -104 -3 -208 -8 -230 -10 -22 -2
-78 -6 -125 -10 -47 -4 -98 -8 -115 -10 -16 -2 -73 -9 -125 -15 -106 -13 -126
-15 -188 -25 -58 -9 -79 -12 -137 -20 -27 -3 -57 -8 -65 -10 -8 -2 -28 -7 -45
-9 -45 -8 -226 -44 -255 -51 -14 -3 -36 -8 -50 -11 -64 -13 -284 -68 -360 -91
-47 -13 -92 -26 -100 -28 -18 -4 -144 -44 -250 -78 -391 -128 -952 -375 -1259
-556 -29 -17 -54 -31 -56 -31 -5 0 -223 -131 -290 -174 -27 -18 -75 -49 -106
-69 l-55 -37 -360 0 c-225 -1 -376 -5 -404 -12 -35 -9 -841 -349 -1035 -437
-22 -10 -112 -49 -200 -87 -250 -106 -327 -165 -396 -305 -58 -116 -57 -103
-57 -1037 l0 -857 -80 -165 c-184 -380 -311 -702 -431 -1098 -60 -197 -156
-581 -175 -704 -3 -21 -10 -57 -15 -80 -5 -24 -12 -61 -15 -83 -4 -22 -13 -78
-21 -125 -8 -47 -17 -107 -20 -135 -3 -27 -7 -61 -10 -75 -4 -31 -15 -129 -20
-192 -2 -25 -6 -66 -9 -90 -3 -24 -8 -92 -12 -153 -3 -60 -8 -130 -10 -155 -4
-61 -4 -623 1 -680 2 -25 6 -97 10 -160 3 -63 8 -128 9 -145 2 -16 7 -61 11
-100 3 -38 8 -81 10 -95 2 -14 7 -52 11 -85 3 -33 8 -67 9 -76 2 -9 6 -40 10
-70 3 -30 8 -61 10 -69 2 -8 7 -35 10 -60 6 -48 11 -72 51 -275 177 -893 546
-1788 1060 -2570 85 -129 220 -323 233 -335 3 -3 17 -21 31 -40 13 -19 28 -39
32 -45 5 -5 39 -50 78 -98 206 -262 301 -368 585 -652 301 -302 515 -487 845
-731 124 -92 348 -244 360 -244 4 0 10 -4 12 -8 2 -5 66 -47 143 -94 488 -296
984 -527 1510 -703 94 -31 177 -58 186 -60 8 -2 40 -11 70 -20 44 -13 146 -42
219 -61 149 -39 419 -98 538 -118 17 -4 44 -8 60 -11 101 -17 267 -42 337 -50
28 -3 65 -8 82 -10 18 -3 65 -7 105 -10 40 -3 84 -8 98 -10 14 -2 72 -6 130
-10 58 -3 141 -8 185 -11 174 -11 649 -5 840 11 33 3 92 7 130 10 39 4 86 8
105 10 19 2 60 7 90 10 30 3 73 8 95 11 22 3 51 7 65 9 14 2 57 8 95 14 39 6
86 13 105 16 19 2 47 7 63 10 15 3 39 7 55 10 15 3 42 8 61 11 18 3 42 8 52
10 26 6 47 10 94 19 22 5 42 9 45 10 3 0 41 9 85 19 390 88 954 271 1233 401
29 14 55 25 58 25 5 0 24 9 189 85 534 248 1112 616 1582 1008 233 194 664
614 827 806 44 51 84 98 90 104 22 24 174 215 252 317 107 140 265 369 349
505 37 61 78 126 90 145 83 129 296 534 394 749 174 382 369 952 456 1333 23
104 67 320 81 398 9 52 18 104 20 115 2 10 6 37 9 60 3 22 8 47 10 55 2 8 7
44 10 80 4 36 8 72 10 80 2 8 6 44 9 80 4 36 9 76 11 90 6 34 23 269 31 425 4
100 4 591 -1 665 -2 30 -6 105 -10 165 -3 61 -8 124 -10 140 -3 17 -7 59 -10
95 -8 89 -24 228 -40 335 -8 54 -44 264 -50 295 -3 14 -8 41 -11 60 -3 19 -15
71 -25 115 -10 45 -20 92 -23 105 -54 277 -270 951 -386 1205 -5 11 -40 90
-79 175 -38 85 -91 198 -117 250 l-48 95 -1 880 c-2 953 1 913 -58 1034 -59
121 -174 220 -305 262 -66 21 -79 22 -717 23 l-650 1 -90 76 c-121 101 -264
214 -355 279 -41 30 -77 57 -80 60 -22 24 -334 229 -515 337 -564 340 -1219
620 -1830 783 -146 40 -183 49 -207 54 -12 3 -70 16 -128 30 -58 13 -118 26
-135 29 -16 3 -52 10 -80 15 -27 6 -70 13 -95 17 -24 4 -47 8 -50 10 -3 2 -26
6 -50 9 -25 4 -56 9 -70 11 -14 2 -45 7 -70 10 -25 4 -56 8 -70 10 -38 6 -99
13 -160 20 -30 3 -71 8 -90 10 -19 2 -71 7 -115 10 -44 4 -100 8 -125 10 -96
8 -597 24 -603 19z m-1621 -1785 c27 -11 67 -29 89 -39 22 -11 103 -46 180
-78 217 -92 886 -382 925 -400 32 -16 277 -17 3307 -17 1799 0 3274 -2 3277
-5 3 -3 6 -1864 6 -4136 l2 -4130 -32 -60 c-194 -358 -492 -785 -797 -1141
-101 -118 -117 -133 -146 -134 -18 0 -1248 -1 -2734 -1 l-2703 -1 0 -1132 0
-1133 -42 4 c-24 2 -61 5 -83 7 l-40 3 -5 1129 -5 1128 -25 8 c-25 7 -372 98
-400 104 -8 2 -42 11 -75 20 -33 9 -121 32 -195 51 -74 20 -193 52 -265 71
-189 50 -199 52 -210 53 -7 0 -10 -402 -10 -1186 0 -1180 0 -1185 -20 -1179
-11 3 -49 12 -85 21 l-65 16 1 1167 c0 641 -1 1171 -3 1177 -5 15 -2683 15
-2684 0 0 -6 0 -203 0 -438 0 -236 -3 -428 -7 -428 -4 0 -32 23 -62 51 -30 28
-66 60 -80 71 l-25 20 0 354 c0 348 0 353 -20 350 -11 -3 -49 -12 -85 -21 -36
-8 -73 -18 -83 -20 -10 -2 -27 -7 -37 -10 -10 -3 -28 -8 -39 -10 -12 -2 -49
-11 -84 -20 -34 -9 -69 -18 -78 -20 -9 -2 -34 -8 -55 -14 -22 -6 -44 -11 -50
-11 -14 0 -126 138 -117 143 5 3 150 40 323 82 173 43 317 80 320 82 8 7 6
4024 -2 4030 -7 3 -559 -214 -933 -369 -66 -27 -124 -51 -130 -52 -5 -2 -24
-8 -40 -15 l-30 -11 1 -1518 c0 -834 -2 -1521 -4 -1526 -3 -4 -33 41 -67 100
-35 60 -72 123 -82 139 -18 29 -18 155 -16 4165 1 2274 3 4143 3 4153 2 23
-17 14 525 247 520 224 546 235 592 256 17 8 62 27 100 44 l68 29 1491 1 1491
0 49 -21z m-3446 -7768 l0 -899 -125 -51 c-69 -29 -131 -54 -138 -57 -9 -3
-12 190 -12 893 l0 897 25 13 c25 13 86 39 150 63 19 8 46 20 60 27 14 7 28
13 33 13 4 0 7 -405 7 -899z m2461 -2925 c3 -78 1 -1157 -2 -1160 -11 -11
-435 193 -624 300 -66 37 -129 72 -140 78 -11 6 -70 42 -130 79 l-110 69 2
326 c1 180 2 328 2 328 1 1 226 2 501 1 l500 0 1 -21z m1589 -187 c52 -17 100
-32 105 -34 47 -10 65 -20 66 -34 1 -21 1 -1361 0 -1383 -1 -16 -7 -17 -91 -3
-14 3 -60 10 -102 17 -59 9 -78 15 -79 27 0 21 0 1377 0 1414 1 15 2 27 4 27
1 0 45 -14 97 -31z m3545 -659 l0 -434 -78 -29 c-43 -16 -81 -27 -83 -24 -3 3
-5 172 -5 376 l0 371 -565 0 -564 0 -2 -522 c-3 -513 -3 -521 -23 -524 -11 -1
-40 -6 -65 -10 -88 -14 -80 -26 -80 120 -1 208 -1 1079 -1 1096 1 13 89 15
734 15 l732 0 0 -435z"/>
<path d="M10629 20153 c0 -87 0 -566 0 -628 l1 -40 1340 0 c737 0 1341 2 1341
5 1 3 2 170 3 373 l1 367 -1342 0 -1343 0 -1 -77z"/>
<path d="M10075 20050 c-192 -87 -372 -169 -400 -181 -27 -12 -79 -35 -115
-51 -36 -17 -101 -46 -145 -65 -44 -19 -84 -39 -90 -44 -12 -12 -14 -729 -2
-729 7 0 228 91 292 120 22 10 305 129 615 257 113 47 209 90 215 95 6 5 10
149 10 383 0 328 -2 375 -15 374 -8 0 -172 -72 -365 -159z"/>
<path d="M13489 20187 c-4 -6 -3 -720 1 -727 4 -7 363 -170 374 -170 2 0 37
-15 78 -34 40 -19 107 -48 148 -66 41 -18 93 -40 115 -50 22 -10 114 -50 205
-90 91 -40 184 -81 207 -91 23 -11 44 -19 47 -19 4 0 6 168 6 374 l0 375 -22
6 c-13 4 -36 13 -53 21 -31 13 -575 245 -880 374 -93 39 -182 78 -197 85 -16
7 -29 13 -29 12z"/>
<path d="M14840 19285 l0 -373 3118 2 3117 1 0 370 0 370 -3117 1 -3118 1 0
-372z"/>
<path d="M10629 19295 c0 -25 0 -3758 1 -3766 0 -3 604 -5 1343 -5 l1342 1 0
1880 c1 1034 -1 1887 -3 1895 -3 13 -160 15 -1343 15 -1333 0 -1339 0 -1340
-20z m1842 -1062 c3 -164 -1 -1676 -5 -1680 -3 -4 -505 -6 -923 -3 l-73 0 0
855 0 855 500 0 500 0 1 -27z"/>
<path d="M10429 19260 c-9 -5 -173 -75 -365 -155 -192 -81 -362 -152 -379
-160 -16 -7 -102 -43 -190 -80 -88 -37 -165 -69 -170 -71 -13 -6 -13 -3760 0
-3757 14 3 653 260 692 278 17 8 36 15 42 15 6 0 19 5 29 10 13 8 177 75 357
146 10 4 15 3767 5 3777 -3 3 -12 1 -21 -3z m-409 -2120 l0 -899 -127 -63
c-71 -35 -132 -63 -138 -63 -11 0 -15 1769 -4 1786 5 9 246 135 262 138 4 0 7
-404 7 -899z"/>
<path d="M13485 17383 c0 -1873 0 -1885 20 -1896 11 -6 34 -17 50 -23 17 -6
265 -110 552 -232 287 -121 531 -223 542 -227 l21 -6 -2 1877 -3 1877 -250
109 c-137 60 -263 115 -280 123 -16 7 -109 48 -205 90 -96 42 -189 82 -206 90
-39 18 -193 84 -219 95 -20 8 -20 5 -20 -1877z m628 587 c77 -39 127 -70 128
-80 4 -84 2 -1764 -2 -1772 -4 -5 -63 19 -138 56 -119 60 -131 69 -132 94 0
32 0 1679 1 1735 0 21 4 37 8 35 4 -1 65 -32 135 -68z"/>
<path d="M14877 18742 l-37 -3 2 -1037 3 -1037 655 0 655 0 1 669 1 669 721 0
c397 0 725 -2 728 -5 3 -4 6 -303 6 -666 0 -496 2 -661 11 -664 7 -2 786 -4
1732 -4 l1720 1 1 1038 1 1037 -26 1 c-84 2 -6143 3 -6174 1z"/>
<path d="M16330 17247 l0 -582 553 0 552 0 3 583 2 582 -555 0 -555 0 0 -583z"/>
<path d="M10629 15338 c0 -17 0 -3973 0 -4015 l1 -33 1343 0 1342 0 0 2030 0
2030 -1342 0 c-1068 0 -1343 -3 -1344 -12z m1852 -1108 c1 -19 1 -1671 0
-1687 -1 -10 -108 -13 -501 -13 l-500 0 -1 28 c-1 37 -1 1642 0 1667 1 20 8
20 501 20 437 0 500 -2 501 -15z"/>
<path d="M13485 13290 l0 -2018 35 -11 c19 -6 114 -31 210 -56 96 -25 245 -64
330 -86 85 -23 163 -43 174 -45 10 -2 44 -11 75 -20 31 -9 63 -17 71 -19 8 -2
42 -10 75 -19 33 -9 67 -18 75 -20 24 -6 103 -27 123 -32 16 -5 17 89 15 1921
l-3 1927 -190 79 c-104 44 -203 86 -220 94 -16 7 -86 37 -155 65 -69 29 -138
58 -155 66 -49 21 -367 155 -415 174 l-45 18 0 -2018z m620 705 c17 -7 50 -21
75 -31 25 -9 49 -21 54 -25 9 -8 15 -1723 6 -1771 l-5 -27 -127 52 c-70 29
-130 56 -134 59 -4 5 -9 1633 -5 1780 1 16 5 16 54 -3 28 -11 66 -26 82 -34z"/>
<path d="M14844 14801 c-2 -2 -4 -488 -4 -1080 l0 -1076 623 2 c342 1 636 2
654 2 l32 1 0 648 c0 356 0 653 0 660 1 9 153 12 726 12 683 0 725 -1 726 -17
0 -10 1 -307 1 -660 l1 -643 26 -1 c32 0 3398 0 3427 1 l21 0 1 1063 c0 584
-2 1069 -4 1077 -3 13 -358 15 -3115 15 -1711 0 -3113 -2 -3115 -4z"/>
<path d="M16320 13224 l0 -574 28 -1 c33 0 1052 0 1070 0 9 1 12 123 12 575
l0 573 -555 0 -555 0 0 -573z"/>
<path d="M24395 22565 c-11 -7 -103 -68 -205 -134 -102 -67 -192 -125 -200
-131 -15 -10 -252 -165 -515 -337 -71 -47 -207 -135 -300 -196 -335 -220 -430
-282 -440 -287 -5 -3 -84 -54 -175 -114 -91 -60 -210 -138 -265 -174 -386
-252 -446 -294 -456 -315 -14 -32 -8 -44 155 -292 72 -110 248 -378 389 -595
647 -990 606 -930 639 -930 10 0 35 9 56 20 49 27 319 204 343 226 35 31 24
68 -54 187 -41 62 -172 263 -292 447 -120 184 -224 342 -231 350 -7 8 -19 26
-26 40 -7 14 -53 85 -101 157 -48 73 -87 138 -87 145 0 7 180 130 400 273 220
143 408 266 418 273 9 7 100 67 202 133 196 128 375 245 630 412 86 56 227
149 315 206 88 58 166 111 174 119 30 30 13 68 -124 278 -76 115 -146 219
-158 232 -23 25 -62 28 -92 7z"/>
<path d="M5930 22044 c-299 -45 -586 -240 -780 -530 -174 -261 -251 -499 -244
-764 3 -128 6 -154 33 -260 39 -152 138 -323 257 -445 103 -105 159 -147 339
-257 77 -47 290 -176 473 -287 358 -218 450 -266 582 -304 125 -36 142 -39
285 -43 146 -3 212 5 335 42 174 53 319 143 465 289 203 203 363 503 401 755
3 19 7 46 10 60 5 30 6 217 0 245 -2 11 -7 43 -10 70 -17 122 -99 312 -190
435 -83 114 -227 241 -373 331 -331 203 -880 533 -928 557 -77 38 -185 77
-255 91 -30 6 -66 14 -80 16 -56 12 -240 11 -320 -1z m204 -625 c38 -7 81 -18
95 -25 14 -8 31 -14 37 -14 17 0 903 -537 1001 -606 296 -210 317 -597 47
-860 -99 -96 -215 -144 -351 -144 -98 0 -162 17 -268 70 -141 72 -949 570
-1014 625 -253 215 -256 568 -8 816 79 79 166 124 273 142 84 14 82 14 188 -4z"/>
<path d="M26157 19424 c-2 -3 -287 -82 -387 -108 -102 -26 -331 -89 -350 -96
-14 -5 -36 -12 -50 -14 -14 -3 -72 -18 -130 -34 -155 -44 -584 -162 -606 -167
-10 -2 -217 -58 -459 -125 -242 -66 -532 -146 -645 -176 -297 -80 -310 -84
-325 -114 -11 -22 -10 -37 11 -115 74 -275 172 -634 184 -675 24 -85 50 -181
69 -250 59 -223 102 -379 111 -407 6 -18 13 -42 15 -54 3 -12 16 -63 31 -113
14 -50 28 -100 30 -111 21 -101 96 -342 110 -352 26 -19 38 -17 221 33 93 26
173 47 178 49 108 24 120 43 94 149 -18 72 -31 117 -120 441 -28 99 -52 187
-54 195 -2 8 -46 173 -99 366 -53 193 -96 360 -96 371 0 17 38 30 335 112 184
51 350 95 369 98 34 5 35 4 46 -38 6 -24 16 -57 21 -74 5 -16 59 -212 119
-435 110 -406 123 -440 164 -440 6 0 70 16 141 36 72 20 137 37 145 39 93 23
157 47 173 66 19 24 18 49 -7 134 -8 28 -24 84 -35 125 -11 41 -36 134 -56
205 -20 72 -38 137 -40 145 -2 8 -22 85 -45 170 -55 200 -59 219 -51 224 15 9
670 186 689 186 17 0 24 -9 32 -42 6 -24 54 -200 107 -393 53 -192 99 -363
103 -380 5 -16 31 -113 60 -215 28 -102 53 -194 55 -205 3 -11 18 -65 33 -120
42 -145 29 -142 293 -71 118 32 222 63 231 68 10 5 21 20 24 33 7 29 6 36
-156 625 -67 245 -130 474 -140 510 -9 36 -29 110 -44 165 -15 55 -34 123 -41
150 -8 28 -32 118 -55 200 -23 83 -50 182 -61 220 -10 39 -26 95 -34 125 -8
30 -22 61 -30 69 -13 14 -68 24 -78 15z"/>
<path d="M4638 19135 c-1 -1 -21 -5 -43 -8 -110 -16 -268 -86 -377 -167 -87
-66 -195 -182 -263 -285 -185 -278 -290 -698 -251 -1005 7 -58 8 -62 21 -125
5 -22 9 -42 10 -45 3 -20 32 -96 57 -150 130 -284 415 -463 754 -474 117 -3
221 21 339 79 221 110 365 261 640 670 111 164 253 357 302 410 40 42 112 99
153 121 25 13 57 18 110 18 62 0 84 -5 129 -28 183 -94 232 -290 144 -571 -39
-125 -89 -211 -168 -290 -133 -134 -266 -167 -445 -110 -38 12 -69 -39 -95
-160 -3 -11 -25 -100 -50 -198 -25 -99 -45 -189 -45 -201 0 -31 27 -53 80 -66
25 -6 54 -13 65 -15 202 -49 400 -32 575 48 140 64 301 205 398 349 101 149
186 350 230 543 39 169 46 232 46 390 0 164 -11 242 -51 365 -97 296 -325 503
-626 570 -93 20 -123 23 -214 23 -231 -2 -470 -140 -654 -378 -90 -116 -209
-282 -309 -430 -197 -294 -297 -413 -394 -470 -68 -40 -168 -46 -250 -15 -202
76 -258 299 -151 600 48 136 121 231 230 302 103 67 214 85 333 54 29 -7 57
-9 65 -4 9 4 22 29 31 56 20 63 126 485 126 504 0 36 -49 59 -180 83 -65 11
-262 19 -272 10z"/>
<path d="M5580 14722 c-56 -25 -90 -73 -92 -133 -2 -42 9 -167 17 -199 2 -8 7
-46 10 -84 3 -38 8 -72 9 -75 2 -3 6 -28 10 -56 3 -27 8 -61 10 -75 3 -14 7
-43 11 -65 5 -37 28 -170 41 -240 3 -16 17 -86 30 -155 14 -69 28 -136 30
-150 3 -14 16 -68 29 -120 13 -52 26 -106 29 -120 16 -71 42 -172 87 -328 322
-1122 823 -2138 1517 -3082 73 -99 345 -445 362 -460 3 -3 30 -34 60 -70 30
-36 57 -67 60 -70 3 -3 39 -43 80 -89 145 -164 202 -220 239 -235 94 -37 194
27 207 133 6 52 -12 89 -85 166 -119 128 -159 173 -365 415 -40 47 -203 255
-278 355 -413 551 -772 1162 -1054 1798 -46 104 -84 191 -84 195 0 4 -7 20
-15 35 -91 174 -385 1075 -431 1317 -2 14 -7 31 -10 39 -11 31 -87 385 -99
461 -3 19 -10 58 -15 85 -18 88 -20 98 -35 200 -8 55 -17 111 -19 125 -3 14
-7 50 -11 81 -3 31 -7 65 -9 75 -2 11 -7 51 -10 89 -16 163 -30 195 -98 231
-28 14 -101 18 -128 6z"/>
<path d="M24680 14709 c-19 -12 -40 -29 -47 -38 -14 -19 -30 -92 -38 -176 -5
-62 -12 -118 -19 -170 -3 -16 -8 -52 -11 -80 -4 -27 -9 -63 -11 -80 -12 -78
-15 -92 -19 -115 -3 -14 -7 -38 -9 -55 -8 -48 -35 -198 -41 -225 -3 -14 -8
-41 -11 -60 -3 -19 -26 -120 -50 -225 -24 -104 -46 -201 -49 -215 -3 -14 -12
-47 -20 -75 -8 -27 -33 -117 -56 -200 -74 -267 -248 -772 -334 -970 -7 -16
-38 -90 -69 -163 -116 -273 -283 -608 -444 -892 -36 -63 -73 -129 -82 -146
-64 -112 -340 -536 -453 -694 -83 -117 -360 -477 -376 -490 -4 -3 -25 -27 -46
-55 -44 -54 -66 -80 -120 -140 -64 -71 -82 -123 -62 -178 17 -46 37 -71 77
-96 71 -43 140 -22 215 64 28 32 55 63 60 69 31 35 203 247 277 341 558 715
1068 1613 1364 2400 19 50 39 99 44 110 37 80 192 554 265 810 32 115 115 448
131 529 2 11 12 63 23 115 23 113 29 144 37 191 3 19 7 42 9 50 3 8 7 33 10
55 4 22 8 47 10 55 2 8 7 35 10 60 3 25 8 56 10 70 18 110 32 214 40 290 2 14
6 52 10 85 3 33 8 77 11 98 6 54 -25 118 -68 145 -47 29 -121 29 -168 1z"/>
<path d="M3985 14673 c-90 -31 -117 -94 -101 -238 4 -33 11 -96 16 -140 5 -44
12 -100 14 -125 3 -25 8 -65 11 -90 4 -25 8 -58 10 -75 2 -16 6 -45 9 -63 36
-238 48 -313 56 -347 5 -22 12 -60 15 -85 6 -45 45 -238 84 -420 12 -52 39
-169 62 -260 22 -91 45 -182 50 -203 5 -21 34 -125 65 -230 319 -1101 798
-2138 1432 -3102 69 -104 128 -192 131 -195 3 -3 26 -34 50 -70 212 -311 581
-772 892 -1115 278 -306 303 -327 387 -320 107 9 175 131 125 222 -10 17 -72
89 -139 160 -112 119 -159 170 -273 298 -129 146 -463 559 -556 689 -11 15
-34 47 -51 70 -121 162 -504 734 -504 751 0 3 -15 28 -34 57 -30 48 -149 254
-221 383 -186 332 -391 761 -550 1150 -244 595 -487 1390 -589 1925 -2 14 -11
59 -20 100 -8 41 -18 91 -21 110 -3 19 -17 96 -30 170 -13 74 -26 151 -29 170
-3 19 -12 85 -21 145 -16 113 -20 141 -30 234 -4 30 -8 63 -10 73 -2 11 -7 52
-10 91 -10 128 -17 171 -32 205 -31 65 -117 100 -188 75z"/>
<path d="M26325 14678 c-42 -9 -91 -49 -105 -84 -5 -11 -11 -54 -15 -95 -6
-78 -13 -141 -20 -199 -3 -19 -7 -55 -10 -80 -3 -25 -7 -61 -10 -80 -3 -19 -7
-55 -10 -80 -3 -25 -8 -56 -10 -70 -2 -14 -7 -45 -10 -70 -20 -154 -71 -435
-126 -690 -22 -102 -42 -196 -45 -210 -3 -14 -17 -70 -30 -125 -14 -55 -27
-107 -29 -115 -99 -412 -314 -1047 -519 -1534 -129 -305 -393 -853 -472 -978
-13 -21 -24 -40 -24 -43 0 -6 -88 -161 -170 -300 -294 -499 -696 -1066 -1043
-1475 -12 -14 -48 -56 -80 -95 -64 -76 -167 -193 -207 -235 -62 -64 -78 -119
-53 -180 38 -94 134 -135 216 -94 54 26 426 460 676 789 232 304 484 668 630
910 67 111 120 199 130 215 29 47 214 375 212 375 -2 0 11 25 29 55 86 145
300 591 433 901 84 198 283 713 293 764 2 6 17 51 34 100 17 50 53 164 81 255
27 91 56 185 64 210 12 41 112 422 120 459 2 9 13 57 25 106 17 73 58 265 76
360 2 11 6 31 9 45 2 14 7 39 10 55 5 32 22 127 29 161 2 12 7 39 10 60 4 22
11 64 16 94 5 30 12 75 15 100 6 48 16 115 20 140 2 8 6 44 10 80 4 36 9 73
10 82 2 9 7 48 10 85 4 37 8 79 11 93 2 14 6 59 10 101 3 42 7 84 8 95 2 10
-3 34 -10 52 -30 74 -102 108 -189 90z"/>
<path d="M20758 8486 c-62 -34 -416 -260 -436 -280 -12 -12 -23 -35 -24 -51
-1 -27 10 -145 17 -186 2 -9 6 -40 10 -70 5 -49 19 -161 30 -249 3 -19 7 -60
10 -90 3 -30 8 -66 10 -80 6 -39 14 -100 20 -155 10 -88 16 -139 21 -180 22
-164 25 -203 16 -209 -5 -3 -146 82 -313 190 -167 107 -338 217 -379 243 -41
27 -129 83 -195 126 -66 43 -135 84 -153 92 -42 18 -41 18 -312 -153 -153 -96
-202 -132 -206 -151 -4 -13 -2 -29 4 -35 6 -6 168 -107 359 -224 191 -117 386
-236 432 -266 47 -29 92 -56 100 -61 9 -4 32 -17 52 -30 19 -12 78 -48 130
-80 52 -32 146 -90 209 -129 63 -39 126 -77 140 -85 14 -8 37 -22 52 -31 14
-9 48 -30 75 -46 98 -58 106 -69 388 -519 169 -269 288 -450 301 -456 28 -13
52 0 279 143 193 121 210 139 184 189 -18 33 -35 61 -317 509 -127 202 -233
376 -236 385 -5 18 -11 68 -21 183 -3 36 -8 81 -10 100 -5 46 -13 129 -20 215
-3 39 -8 86 -11 105 -2 20 -6 60 -9 90 -2 30 -7 82 -10 115 -3 33 -8 83 -11
110 -5 53 -10 109 -18 190 -12 112 -16 153 -21 215 -3 36 -7 86 -10 113 -14
134 -22 217 -30 307 -16 179 -20 194 -54 203 -11 2 -30 -1 -43 -7z"/>
<path d="M9768 8308 c-18 -14 -23 -52 -33 -233 -4 -60 -8 -132 -11 -160 -2
-27 -6 -86 -9 -130 -3 -44 -7 -111 -10 -150 -2 -38 -7 -110 -11 -160 -9 -125
-11 -163 -19 -295 -5 -63 -9 -131 -10 -150 -2 -19 -6 -82 -9 -140 -4 -58 -9
-125 -11 -150 -2 -25 -7 -81 -9 -125 -3 -44 -8 -118 -11 -164 -3 -46 -11 -93
-17 -105 -11 -20 -272 -470 -436 -749 -45 -76 -84 -147 -87 -158 -4 -11 0 -30
9 -43 12 -19 301 -197 414 -256 45 -23 67 -6 131 100 34 56 61 103 61 106 0 3
8 17 19 32 10 15 94 158 186 317 92 160 181 310 198 335 24 36 67 69 199 155
93 61 207 135 254 165 46 30 157 102 246 160 90 58 168 108 173 113 6 5 66 45
135 89 125 81 222 144 488 317 163 107 177 126 124 171 -18 15 -51 36 -74 49
-24 12 -59 32 -79 44 -135 82 -291 169 -310 172 -12 2 -35 -3 -53 -12 -17 -9
-220 -147 -451 -306 -231 -160 -448 -310 -483 -334 -35 -24 -68 -40 -74 -37
-9 6 -7 63 8 209 7 66 12 121 19 225 4 47 8 96 10 110 2 14 6 59 10 100 3 41
8 91 10 110 2 19 7 73 10 120 4 47 8 99 10 115 22 198 22 252 -1 276 -24 23
-440 267 -468 275 -12 3 -28 -1 -38 -8z"/>
<path d="M12319 7017 c-18 -14 -40 -78 -179 -532 -56 -181 -110 -357 -120
-390 -40 -128 -163 -525 -196 -635 -20 -63 -65 -209 -101 -325 -35 -115 -66
-217 -68 -225 -2 -8 -42 -137 -89 -287 -99 -318 -101 -327 -75 -351 17 -16
415 -145 482 -156 31 -5 62 20 70 57 4 22 115 380 297 967 51 162 96 311 102
330 5 19 44 143 85 275 41 132 81 260 88 285 7 25 61 200 120 390 138 442 131
415 112 444 -9 13 -26 26 -39 29 -13 2 -119 35 -236 71 -118 36 -219 66 -225
66 -7 0 -19 -6 -28 -13z"/>
<path d="M17811 6948 c-25 -4 -63 -10 -85 -13 -40 -6 -375 -92 -466 -120 -25
-8 -79 -23 -120 -34 -320 -83 -597 -164 -607 -178 -16 -20 -16 -47 -2 -93 5
-19 12 -42 14 -50 2 -8 22 -82 45 -165 22 -82 43 -157 45 -165 8 -33 187 -688
200 -735 30 -101 190 -684 200 -729 2 -10 12 -44 21 -75 9 -31 18 -65 20 -76
14 -66 181 -653 190 -669 16 -27 60 -25 179 8 55 16 271 75 480 132 483 132
474 130 575 166 258 93 467 262 564 455 130 261 57 676 -160 900 -83 86 -220
160 -346 187 -16 4 -28 10 -28 15 0 5 21 31 46 57 186 195 217 443 95 749 -57
140 -152 263 -262 336 -56 37 -155 76 -239 93 -70 15 -287 18 -359 4z m194
-550 c88 -45 139 -112 170 -222 45 -157 -33 -310 -198 -386 -81 -38 -577 -174
-589 -162 -5 5 -41 124 -80 263 -103 376 -102 369 -89 382 6 6 129 43 273 84
256 70 266 72 363 70 85 -3 108 -7 150 -29z m283 -1097 c100 -28 186 -121 223
-243 60 -196 -33 -373 -234 -444 -58 -21 -544 -154 -562 -154 -8 0 -20 21 -29
53 -19 69 -39 140 -42 152 -1 6 -30 111 -64 235 -34 123 -62 227 -62 230 -2
21 6 29 35 35 17 4 68 17 112 30 128 37 418 114 445 118 40 6 135 -1 178 -12z"/>
<path d="M13513 6624 c-14 -14 -23 -36 -24 -56 0 -18 -2 -51 -3 -73 -2 -22 -6
-103 -10 -180 -4 -77 -9 -176 -11 -220 -3 -44 -7 -123 -10 -175 -2 -52 -7
-135 -10 -185 -3 -49 -7 -137 -10 -195 -10 -207 -14 -286 -19 -380 -14 -239
-16 -274 -31 -575 -5 -97 -12 -229 -20 -367 -11 -189 -19 -367 -18 -402 3 -67
12 -71 223 -81 69 -3 169 -8 222 -11 88 -4 99 -3 118 16 13 13 20 34 21 63 1
23 2 56 4 72 1 17 6 100 10 185 4 85 9 173 10 195 1 22 5 99 9 170 4 72 9 162
11 200 2 39 7 124 10 190 6 121 12 242 20 370 2 39 6 133 10 210 8 171 15 220
29 204 3 -4 271 -501 346 -644 23 -44 47 -86 53 -94 20 -23 53 -30 186 -36
l130 -6 35 33 c18 18 78 98 132 178 54 80 129 190 167 245 38 55 92 135 120
177 29 43 57 78 64 78 9 0 11 -21 8 -72 -2 -40 -6 -129 -10 -198 -3 -69 -8
-154 -10 -190 -3 -36 -7 -119 -10 -185 -3 -66 -7 -154 -10 -195 -2 -41 -7
-127 -10 -190 -3 -63 -8 -149 -11 -190 -2 -41 -7 -120 -9 -175 -7 -147 -15
-313 -19 -367 -7 -99 9 -119 103 -123 128 -6 320 -16 368 -20 69 -6 100 6 107
42 7 32 9 69 31 508 5 90 14 267 20 375 3 47 7 132 10 190 3 58 7 137 10 175
3 39 7 124 10 190 3 66 7 152 9 190 3 39 8 129 11 200 4 72 8 157 10 190 2 33
7 121 11 195 3 74 8 155 9 180 2 25 6 110 10 190 4 80 8 160 9 179 6 72 -14
90 -109 96 -382 23 -440 23 -466 -1 -12 -10 -65 -82 -119 -159 -96 -137 -198
-282 -377 -534 -48 -69 -110 -157 -137 -195 -27 -39 -50 -72 -51 -74 -4 -5
-35 10 -35 17 0 4 -53 104 -118 222 -65 117 -136 248 -159 289 -22 41 -52 95
-66 120 -25 45 -104 190 -167 305 -56 103 -52 101 -205 109 -218 12 -311 17
-345 20 -25 2 -41 -4 -57 -20z"/>
</g>
</svg>
